<svg xmlns="http://www.w3.org/2000/svg" width="980" height="520" viewBox="0 0 980 520">
  <rect width="980" height="520" fill="#FFFFFF"/>
  <defs>
    <style>
      .box { fill:#F7FAFC; stroke:#2D3748; stroke-width:2; rx:12; }
      .core { fill:#E6FFFA; stroke:#234E52; stroke-width:2; rx:12; }
      .text { font-family:'Microsoft YaHei', Arial, sans-serif; font-size:18px; fill:#1A202C; }
      .small { font-family:'Microsoft YaHei', Arial, sans-serif; font-size:14px; fill:#2D3748; }
      .line { stroke:#4A5568; stroke-width:2; fill:none; marker-end:url(#arrow); }
    </style>
    <marker id="arrow" markerWidth="12" markerHeight="12" refX="10" refY="6" orient="auto">
      <path d="M2,2 L10,6 L2,10 Z" fill="#4A5568"/>
    </marker>
  </defs>
  <rect class="core" x="40" y="40" width="190" height="70"/>
  <text class="text" x="78" y="82">需求总览</text>
  <rect class="box" x="300" y="30" width="220" height="90"/>
  <text class="text" x="346" y="68">玩法主循环</text>
  <text class="small" x="328" y="96">模块关卡 + 自动战斗</text>
  <rect class="box" x="690" y="30" width="220" height="90"/>
  <text class="text" x="736" y="68">Godot 游戏</text>
  <text class="small" x="723" y="96">读取发布包运行</text>
  <rect class="box" x="300" y="170" width="220" height="90"/>
  <text class="text" x="356" y="208">后台配置</text>
  <text class="small" x="322" y="236">Go + Vue + YAML</text>
  <rect class="box" x="690" y="170" width="220" height="90"/>
  <text class="text" x="746" y="208">发布包</text>
  <text class="small" x="714" y="236">校验 版本 回滚</text>
  <rect class="box" x="300" y="310" width="220" height="90"/>
  <text class="text" x="356" y="348">素材流程</text>
  <text class="small" x="314" y="376">imagegen -> Godot</text>
  <rect class="box" x="690" y="310" width="220" height="90"/>
  <text class="text" x="746" y="348">交付验证</text>
  <text class="small" x="712" y="376">PC 安装包与验收</text>
  <path class="line" d="M230 75 H300"/>
  <path class="line" d="M520 75 H690"/>
  <path class="line" d="M230 75 C260 75 260 215 300 215"/>
  <path class="line" d="M520 215 H690"/>
  <path class="line" d="M800 260 V310"/>
  <path class="line" d="M520 355 H690"/>
  <path class="line" d="M410 310 V260"/>
  <path class="line" d="M800 170 V120"/>
</svg>

