<svg xmlns="http://www.w3.org/2000/svg" width="56" height="56" viewBox="0 0 56 56">
  <ellipse cx="28" cy="47" rx="14" ry="5.5" fill="#2a0f12" fill-opacity="0.24"/>
  <path d="M17 16l11-7 12 7 6 12-3 12-15 7-15-7-3-12z" fill="#bf4b52" stroke="#4c1a20" stroke-width="3.2" stroke-linejoin="round"/>
  <path d="M28 12c5 1 9 5 11 10-5-2-17-2-22 0 2-5 6-9 11-10z" fill="#df6f72" stroke="#4c1a20" stroke-width="2.8" stroke-linejoin="round"/>
  <path d="M20 20l-7 3 3 7 8 1 2-7zM36 20l7 3-3 7-8 1-2-7z" fill="#e7837a" stroke="#4c1a20" stroke-width="2.6" stroke-linejoin="round"/>
  <path d="M28 16c4.5 0 8 3 8 8v7c0 4-3 7-8 9-5-2-8-5-8-9v-7c0-5 3.5-8 8-8z" fill="#f2b9ac" stroke="#4c1a20" stroke-width="2.8" stroke-linejoin="round"/>
  <circle cx="23" cy="26" r="2.5" fill="#220a0c"/>
  <circle cx="33" cy="26" r="2.5" fill="#220a0c"/>
  <path d="M22 33c2-2 10-2 12 0" fill="none" stroke="#220a0c" stroke-width="3" stroke-linecap="round"/>
  <path d="M22 12l-5-7 8 3zM34 12l5-7-8 3z" fill="#f39a8b" stroke="#4c1a20" stroke-width="2.6" stroke-linejoin="round"/>
  <path d="M26 18h4" stroke="#fff0de" stroke-width="1.7" stroke-linecap="round" opacity="0.65"/>
</svg>
