<svg xmlns="http://www.w3.org/2000/svg" width="56" height="56" viewBox="0 0 56 56">
  <ellipse cx="28" cy="47" rx="14" ry="5.5" fill="#2c140b" fill-opacity="0.22"/>
  <path d="M15 18l13-8 13 8 4 12-4 11-13 6-13-6-4-11z" fill="#cf7338" stroke="#58260f" stroke-width="3.2" stroke-linejoin="round"/>
  <path d="M28 13c5 1.5 9 5 11 9-5-2-17-2-22 0 2-4 6-7.5 11-9z" fill="#efaa62" stroke="#58260f" stroke-width="2.8" stroke-linejoin="round"/>
  <path d="M20 18l-9-5 7 10 8 1zM36 18l9-5-7 10-8 1z" fill="#f6c573" stroke="#58260f" stroke-width="2.6" stroke-linejoin="round"/>
  <path d="M28 18c4 0 8 3 8 8v6c0 4-3 7-8 9-5-2-8-5-8-9v-6c0-5 4-8 8-8z" fill="#ffd7a0" stroke="#58260f" stroke-width="2.8" stroke-linejoin="round"/>
  <circle cx="23" cy="27" r="2.5" fill="#2a1108"/>
  <circle cx="33" cy="27" r="2.5" fill="#2a1108"/>
  <path d="M22 34h12" stroke="#2a1108" stroke-width="3" stroke-linecap="round"/>
  <path d="M25 18h6" stroke="#fff0cb" stroke-width="1.7" stroke-linecap="round" opacity="0.65"/>
</svg>
