<svg xmlns="http://www.w3.org/2000/svg" width="56" height="56" viewBox="0 0 56 56">
  <ellipse cx="28" cy="47" rx="14" ry="5.5" fill="#123121" fill-opacity="0.22"/>
  <path d="M16 20l9-8 8 1 8 7 2 11-6 10-9 4-10-4-5-10z" fill="#4db66f" stroke="#1f5b36" stroke-width="3.2" stroke-linejoin="round"/>
  <path d="M24 16c-3 2-5 6-5 10 0 7 4 10 9 13-7-1-13-7-13-15 0-3 1-6 3-9z" fill="#79d995" fill-opacity="0.52"/>
  <path d="M32 16c3 2 5 6 5 10 0 7-4 10-9 13 7-1 13-7 13-15 0-3-1-6-3-9z" fill="#95efab" fill-opacity="0.45"/>
  <path d="M28 18c4 0 7 3 7 7v6c0 4-3 7-7 9-4-2-7-5-7-9v-6c0-4 3-7 7-7z" fill="#c9f4cb" stroke="#1f5b36" stroke-width="2.8" stroke-linejoin="round"/>
  <circle cx="23" cy="27" r="2.4" fill="#123120"/>
  <circle cx="33" cy="27" r="2.4" fill="#123120"/>
  <path d="M21 35c3-1.5 11-1.5 14 0" fill="none" stroke="#123120" stroke-width="3" stroke-linecap="round"/>
  <path d="M14 24l-4 9 8 3 2-7zM42 24l4 9-8 3-2-7z" fill="#93e6a1" stroke="#1f5b36" stroke-width="2.6" stroke-linejoin="round"/>
</svg>
