<svg xmlns="http://www.w3.org/2000/svg" width="64" height="64" viewBox="0 0 64 64">
  <ellipse cx="32" cy="55" rx="17" ry="6.5" fill="#12252e" fill-opacity="0.25"/>
  <path d="M20 16l12-8 12 8 4 12-4 13-12 7-12-7-4-13z" fill="#4c7290" stroke="#1c3443" stroke-width="3.2" stroke-linejoin="round"/>
  <path d="M32 12c6 2 10 7 12 12-6-2-18-2-24 0 2-5 6-10 12-12z" fill="#7fa6bf" stroke="#1c3443" stroke-width="3" stroke-linejoin="round"/>
  <path d="M32 15c4.2 0 8 4 8 8v7c0 6-3.8 10-8 12-4.2-2-8-6-8-12v-7c0-4 3.8-8 8-8z" fill="#ead5bb" stroke="#1c3443" stroke-width="3" stroke-linejoin="round"/>
  <path d="M16 25l7-7 8 7-4 19-12-3z" fill="#e9f1f7" stroke="#2a4a60" stroke-width="3" stroke-linejoin="round"/>
  <path d="M20 27l4-4 4 4-2 10-6-1.5z" fill="#89aac2"/>
  <path d="M42 23l5 8-4 9-9-3 2-10z" fill="#2d5976" stroke="#1c3443" stroke-width="3" stroke-linejoin="round"/>
  <path d="M28 39l-2 10 6 8 6-8-2-10z" fill="#c5914b" stroke="#6f451d" stroke-width="3" stroke-linejoin="round"/>
  <path d="M27 49l-4 5M37 49l4 5" stroke="#1c3443" stroke-width="3.1" stroke-linecap="round"/>
  <circle cx="28" cy="26" r="2.3" fill="#19252d"/>
  <circle cx="36" cy="26" r="2.3" fill="#19252d"/>
  <path d="M27 31c2.2 1 7.8 1 10 0" fill="none" stroke="#8d6946" stroke-width="2.6" stroke-linecap="round"/>
  <path d="M28 18c2-1.5 6-1.5 8 0" fill="none" stroke="#ffffff" stroke-width="1.9" stroke-linecap="round" opacity="0.55"/>
  <path d="M18 43l8 2M24 22l4 4" stroke="#f9ffff" stroke-width="1.8" stroke-linecap="round" opacity="0.6"/>
</svg>
