<svg xmlns="http://www.w3.org/2000/svg" width="64" height="64" viewBox="0 0 64 64">
  <ellipse cx="32" cy="55" rx="16" ry="6.5" fill="#0e241f" fill-opacity="0.24"/>
  <path d="M22 16l10-8 11 7 5 11-5 14-11 7-12-6-5-14z" fill="#2d7d6d" stroke="#14322c" stroke-width="3.2" stroke-linejoin="round"/>
  <path d="M32 11c6 2 10 7 12 13-5-2-18-2-24 0 2-6 6-11 12-13z" fill="#47a693" stroke="#14322c" stroke-width="3" stroke-linejoin="round"/>
  <path d="M32 15c4 0 8 4 8 8v7c0 6-4 10-8 12-4-2-8-6-8-12v-7c0-4 4-8 8-8z" fill="#f0d4b2" stroke="#14322c" stroke-width="3" stroke-linejoin="round"/>
  <path d="M24 23l-6 7 5 10 8-3-2-10z" fill="#1e5b4f" stroke="#14322c" stroke-width="3" stroke-linejoin="round"/>
  <path d="M40 23l6 7-5 10-8-3 2-10z" fill="#1e5b4f" stroke="#14322c" stroke-width="3" stroke-linejoin="round"/>
  <path d="M28 39l-3 10 7 8 7-8-3-10z" fill="#cf8f3a" stroke="#714016" stroke-width="3" stroke-linejoin="round"/>
  <path d="M25 49l-5 5M39 49l5 5" stroke="#14322c" stroke-width="3.2" stroke-linecap="round"/>
  <path d="M44 32l8 2-2 6-9 1-3-4z" fill="#56626e" stroke="#20303a" stroke-width="2.8" stroke-linejoin="round"/>
  <path d="M47 33l3 1-1 4-4 1-1-2z" fill="#b8d3e4"/>
  <path d="M28 31c1.8 1.2 6.2 1.2 8 0" fill="none" stroke="#8a5630" stroke-width="2.6" stroke-linecap="round"/>
  <circle cx="28" cy="26" r="2.3" fill="#17312b"/>
  <circle cx="36" cy="26" r="2.3" fill="#17312b"/>
  <path d="M28 18c2-2 6-2 8 0" fill="none" stroke="#fff5d0" stroke-width="2" stroke-linecap="round" opacity="0.55"/>
  <path d="M26 44h12" stroke="#ffd775" stroke-width="2.3" stroke-linecap="round" opacity="0.82"/>
</svg>
